<svg width="1280" height="840" viewBox="0 0 1280 840" fill="none" xmlns="http://www.w3.org/2000/svg">
  <defs>
    <linearGradient id="bg" x1="180" y1="80" x2="1120" y2="760" gradientUnits="userSpaceOnUse">
      <stop stop-color="#F7FAFF"/>
      <stop offset="1" stop-color="#E7EEF9"/>
    </linearGradient>
    <linearGradient id="panel" x1="320" y1="120" x2="1000" y2="720" gradientUnits="userSpaceOnUse">
      <stop stop-color="#FFFFFF"/>
      <stop offset="1" stop-color="#F8FBFF"/>
    </linearGradient>
    <linearGradient id="sidebar" x1="300" y1="160" x2="300" y2="680" gradientUnits="userSpaceOnUse">
      <stop stop-color="#102138"/>
      <stop offset="1" stop-color="#172D4A"/>
    </linearGradient>
    <filter id="shadow" x="200" y="72" width="880" height="704" filterUnits="userSpaceOnUse" color-interpolation-filters="sRGB">
      <feFlood flood-opacity="0" result="BackgroundImageFix"/>
      <feColorMatrix in="SourceAlpha" type="matrix" values="0 0 0 0 0 0 0 0 0 0 0 0 0 0 0 0 0 0 127 0" result="hardAlpha"/>
      <feOffset dy="20"/>
      <feGaussianBlur stdDeviation="28"/>
      <feColorMatrix type="matrix" values="0 0 0 0 0.0901961 0 0 0 0 0.176471 0 0 0 0 0.298039 0 0 0 0.18 0"/>
      <feBlend mode="normal" in2="BackgroundImageFix" result="effect1_dropShadow_1_1"/>
      <feBlend mode="normal" in="SourceGraphic" in2="effect1_dropShadow_1_1" result="shape"/>
    </filter>
  </defs>

  <rect width="1280" height="840" rx="36" fill="url(#bg)"/>
  <circle cx="183" cy="170" r="104" fill="#DCE8FB"/>
  <circle cx="1094" cy="702" r="138" fill="#D9F3EE"/>
  <circle cx="1132" cy="136" r="62" fill="#FDE7C4"/>

  <g filter="url(#shadow)">
    <rect x="256" y="128" width="768" height="592" rx="28" fill="url(#panel)"/>
    <rect x="256" y="128" width="768" height="592" rx="28" stroke="#D7E3F1" stroke-width="2"/>

    <rect x="284" y="156" width="196" height="536" rx="22" fill="url(#sidebar)"/>
    <rect x="316" y="188" width="116" height="18" rx="9" fill="#FFFFFF" fill-opacity="0.95"/>
    <rect x="316" y="226" width="132" height="10" rx="5" fill="#9EB4D3"/>

    <rect x="316" y="284" width="132" height="48" rx="18" fill="#24466E"/>
    <circle cx="342" cy="308" r="10" fill="#7BDCB5"/>
    <rect x="362" y="300" width="66" height="12" rx="6" fill="#FFFFFF"/>
    <rect x="362" y="318" width="48" height="8" rx="4" fill="#9EB4D3"/>

    <rect x="316" y="348" width="132" height="48" rx="18" fill="#1C3A5E"/>
    <circle cx="342" cy="372" r="10" fill="#FDBA74"/>
    <rect x="362" y="364" width="74" height="12" rx="6" fill="#FFFFFF"/>
    <rect x="362" y="382" width="44" height="8" rx="4" fill="#9EB4D3"/>

    <rect x="316" y="412" width="132" height="48" rx="18" fill="#1C3A5E"/>
    <circle cx="342" cy="436" r="10" fill="#93C5FD"/>
    <rect x="362" y="428" width="58" height="12" rx="6" fill="#FFFFFF"/>
    <rect x="362" y="446" width="39" height="8" rx="4" fill="#9EB4D3"/>

    <rect x="512" y="188" width="200" height="20" rx="10" fill="#19314E"/>
    <rect x="740" y="188" width="172" height="46" rx="16" fill="#EDF4FF"/>
    <rect x="762" y="204" width="112" height="12" rx="6" fill="#6D87A5"/>

    <rect x="512" y="258" width="472" height="112" rx="24" fill="#FFFFFF"/>
    <rect x="512" y="258" width="472" height="112" rx="24" stroke="#D8E4F2" stroke-width="2"/>
    <rect x="540" y="286" width="102" height="56" rx="18" fill="#DCEBFF"/>
    <g fill="#1D4ED8">
      <rect x="556" y="302" width="18" height="18" rx="5"/>
      <rect x="582" y="302" width="18" height="18" rx="5"/>
      <rect x="608" y="302" width="18" height="18" rx="5"/>
      <rect x="556" y="328" width="18" height="18" rx="5"/>
      <rect x="582" y="328" width="18" height="18" rx="5"/>
      <rect x="608" y="328" width="18" height="18" rx="5"/>
    </g>
    <rect x="670" y="286" width="178" height="16" rx="8" fill="#19314E"/>
    <rect x="670" y="312" width="138" height="10" rx="5" fill="#7088A8"/>
    <rect x="670" y="334" width="116" height="10" rx="5" fill="#96AAC4"/>
    <rect x="866" y="290" width="92" height="44" rx="14" fill="#E8F7F2"/>
    <rect x="886" y="306" width="52" height="12" rx="6" fill="#0F766E"/>

    <rect x="512" y="394" width="224" height="126" rx="24" fill="#FFF9F1"/>
    <rect x="512" y="394" width="224" height="126" rx="24" stroke="#F2DFC0" stroke-width="2"/>
    <rect x="536" y="418" width="74" height="74" rx="20" fill="#FFE2B8"/>
    <rect x="550" y="432" width="46" height="18" rx="9" fill="#B45309"/>
    <rect x="626" y="424" width="82" height="14" rx="7" fill="#7C4A03"/>
    <rect x="626" y="448" width="58" height="10" rx="5" fill="#C58A3A"/>
    <rect x="626" y="468" width="68" height="10" rx="5" fill="#D2A15D"/>

    <rect x="760" y="394" width="224" height="126" rx="24" fill="#F4FBF8"/>
    <rect x="760" y="394" width="224" height="126" rx="24" stroke="#D7ECE2" stroke-width="2"/>
    <rect x="786" y="420" width="88" height="20" rx="10" fill="#0F766E"/>
    <rect x="786" y="452" width="162" height="16" rx="8" fill="#234B46"/>
    <rect x="786" y="478" width="122" height="10" rx="5" fill="#7BA7A0"/>
    <rect x="904" y="420" width="48" height="48" rx="16" fill="#C8EFE4"/>
    <path d="M918 444H938" stroke="#0F766E" stroke-width="8" stroke-linecap="round"/>
    <path d="M928 434V454" stroke="#0F766E" stroke-width="8" stroke-linecap="round"/>

    <rect x="512" y="548" width="472" height="116" rx="24" fill="#FFFFFF"/>
    <rect x="512" y="548" width="472" height="116" rx="24" stroke="#D8E4F2" stroke-width="2"/>
    <rect x="540" y="580" width="140" height="16" rx="8" fill="#16304B"/>
    <rect x="540" y="608" width="92" height="10" rx="5" fill="#8EA2BE"/>
    <rect x="734" y="572" width="224" height="36" rx="18" fill="#EDF4FF"/>
    <rect x="756" y="584" width="44" height="12" rx="6" fill="#1D4ED8"/>
    <rect x="816" y="584" width="44" height="12" rx="6" fill="#1D4ED8"/>
    <rect x="876" y="584" width="58" height="12" rx="6" fill="#1D4ED8"/>
    <rect x="734" y="618" width="120" height="14" rx="7" fill="#DDE9F8"/>
  </g>
</svg>
